<svg xmlns="http://www.w3.org/2000/svg" viewBox="0 0 32 32" width="32" height="32">
  <rect x="0" y="0" width="32" height="32" rx="8" fill="#047857"/>
  <path d="M16 9.5c-2.3-1.45-5.2-2-8.1-1.5-.6.1-1.02.62-1.02 1.23v10.4c0 .72.64 1.27 1.35 1.15 2.48-.41 4.96.1 6.77 1.37V9.5Z" fill="#FEF3C7"/>
  <path d="M16 9.5c2.3-1.45 5.2-2 8.1-1.5.6.1 1.02.62 1.02 1.23v10.4c0 .72-.64 1.27-1.35 1.15-2.48-.41-4.96.1-6.77 1.37V9.5Z" fill="#FEF3C7"/>
  <path d="M16 9.5v12.85" stroke="#FCD34D" stroke-width="1.3" stroke-linecap="round"/>
</svg>
